PathFileType	4	(X/Y/Z)	/Users/itak/Documents/Research/Walk-IL/dataset/trc/00197_00008.trc
DataRate	CameraRate	NumFrames	NumMarkers	Units	OrigDataRate	OrigDataStartFrame	OrigNumFrames
100.000000	100.000000	4	53	mm	100.000000	94	755
Frame#	Time	RPSI			LPSI			L3			STRN			T10			C7			CLAV			RBAK			LBAK			LSHO			LUPA			LAEL			LAOL			LWTS			LWPS			LFRA			LIFD			LHPS			LHTS			RSHO			RUPA			RAEL			RAOL			RWTS			RWPS			RFRA			RIFD			RHTS			RHPS			RBHD			LFHD			RFHD			LBHD			LHIP			RHIP			RASI			LASI			LKNE			LTHI			LANK			LTIP			LTOE			LMT1			LMT5			LHEE			RKNE			RTHI			RANK			RTIP			RTOE			RMT1			RMT5			RHEE			
		X1	Y1	Z1	X2	Y2	Z2	X3	Y3	Z3	X4	Y4	Z4	X5	Y5	Z5	X6	Y6	Z6	X7	Y7	Z7	X8	Y8	Z8	X9	Y9	Z9	X10	Y10	Z10	X11	Y11	Z11	X12	Y12	Z12	X13	Y13	Z13	X14	Y14	Z14	X15	Y15	Z15	X16	Y16	Z16	X17	Y17	Z17	X18	Y18	Z18	X19	Y19	Z19	X20	Y20	Z20	X21	Y21	Z21	X22	Y22	Z22	X23	Y23	Z23	X24	Y24	Z24	X25	Y25	Z25	X26	Y26	Z26	X27	Y27	Z27	X28	Y28	Z28	X29	Y29	Z29	X30	Y30	Z30	X31	Y31	Z31	X32	Y32	Z32	X33	Y33	Z33	X34	Y34	Z34	X35	Y35	Z35	X36	Y36	Z36	X37	Y37	Z37	X38	Y38	Z38	X39	Y39	Z39	X40	Y40	Z40	X41	Y41	Z41	X42	Y42	Z42	X43	Y43	Z43	X44	Y44	Z44	X45	Y45	Z45	X46	Y46	Z46	X47	Y47	Z47	X48	Y48	Z48	X49	Y49	Z49	X50	Y50	Z50	X51	Y51	Z51	X52	Y52	Z52	X53	Y53	Z53	

95	0.9400000000000001	351.6259460449219	1038.0703125	1039.522827148438	339.5083923339844	1042.325317382812	1161.754272460938	342.5097351074219	1079.56884765625	1099.062377929688	67.01693725585938	1268.494262695312	1082.41552734375	364.0088806152344	1245.377685546875	1111.160888671875	269.6734313964844	1505.426879882812	1115.103759765625	80.49216461181641	1385.520629882812	1093.471557617188	364.8580932617188	1339.775756835938	1014.941711425781	270.5423278808594	1483.066772460938	1215.478759765625	188.7297821044922	1464.028076171875	1286.316528320312	227.6521301269531	1337.569091796875	1366.48046875	229.6991119384766	1120.138549804688	1390.06201171875	288.7597351074219	1108.514892578125	1325.93505859375	154.1510009765625	874.252685546875	1355.464965820312	226.9629211425781	866.9278564453125	1408.118530273438	225.926025390625	1009.982666015625	1406.9013671875	172.4743499755859	691.8583374023438	1334.174682617188	218.3116455078125	795.51806640625	1403.54443359375	149.7034912109375	795.1444091796875	1376.284790039062	227.0158081054688	1479.57275390625	929.5123901367188	262.3233947753906	1416.90087890625	864.4766235351562	323.9921875	1135.641845703125	812.703369140625	313.4165954589844	1125.87890625	909.7388916015625	209.2206726074219	894.5879516601562	803.4652709960938	293.0663757324219	886.2301635742188	772.82470703125	310.7682800292969	1061.580688476562	789.7255249023438	213.3661651611328	704.7003173828125	828.6773071289062	197.0628662109375	796.4110717773438	791.3405151367188	275.2879638671875	800.3767700195312	771.5831298828125	187.633056640625	1659.8759765625	1030.810180664062	-10.36397171020508	1669.375610351562	1120.225341796875	16.57748413085938	1659.421508789062	992.9562377929688	162.4053039550781	1678.904174804688	1163.980590820312	233.2870330810547	979.5741577148438	1274.054565429688	207.7629852294922	996.1724243164062	903.8278198242188	123.3305587768555	1019.71435546875	954.3862915039062	109.2096710205078	1008.831909179688	1214.371826171875	283.034423828125	490.30078125	1218.586059570312	256.87060546875	631.0902099609375	1248.806396484375	445.7000732421875	42.08968734741211	1198.724853515625	363.5989379882812	274.9970397949219	1221.1396484375	225.1220245361328	45.99257659912109	1179.43896484375	273.4348754882812	49.81539535522461	1131.746826171875	340.3857727050781	35.68420028686523	1245.13671875	493.7260437011719	43.54931640625	1125.866943359375	-6.372288227081299	547.0159301757812	895.3134155273438	92.5010986328125	801.2657470703125	882.6305541992188	-61.24370574951172	49.6234016418457	899.6964111328125	-52.86171340942383	430.7976379394531	898.4927368164062	-261.8753051757812	134.5973968505859	876.4628295898438	-229.0239562988281	111.2300720214844	931.8704223632812	-154.1563262939453	82.04791259765625	839.6741333007812	-32.68159484863281	37.36505508422852	978.6669921875	
96	0.9500000000000001	345.8855285644531	1036.074462890625	1038.324096679688	333.8394165039062	1040.556274414062	1160.550170898438	336.8353576660156	1077.685791015625	1097.787719726562	61.39504623413086	1266.77392578125	1080.821166992188	358.46337890625	1243.466552734375	1109.75341796875	264.2945251464844	1503.570678710938	1113.347290039062	74.93357086181641	1383.812377929688	1091.7333984375	359.4610290527344	1337.727294921875	1013.460144042969	265.083984375	1481.358642578125	1213.74658203125	183.2702026367188	1462.602905273438	1284.6416015625	221.9418182373047	1336.15283203125	1364.953857421875	223.6205596923828	1118.801147460938	1389.131225585938	282.683349609375	1106.897094726562	1325.078857421875	147.4163818359375	873.041015625	1355.00439453125	220.2024993896484	865.601318359375	1407.682983398438	219.5526123046875	1008.668823242188	1406.205322265625	165.1135711669922	690.5398559570312	1334.087524414062	211.3298492431641	794.2185668945312	1403.253784179688	142.7386016845703	794.0205078125	1375.99853515625	221.6757965087891	1477.4931640625	927.7554321289062	257.083984375	1414.778198242188	862.8489990234375	319.1723937988281	1133.601440429688	811.4656982421875	308.5009155273438	1123.908203125	908.4952392578125	205.163818359375	892.1905517578125	802.3023071289062	289.0185241699219	884.1068725585938	771.6871948242188	306.1429443359375	1059.507568359375	788.5282592773438	209.9811096191406	702.3278198242188	827.72509765625	193.3645629882812	793.9473266601562	790.3034057617188	271.5818176269531	798.204833984375	770.5133056640625	183.1450958251953	1657.70947265625	1028.924072265625	-15.35349464416504	1668.263671875	1117.120483398438	12.3367338180542	1657.986083984375	990.0303344726562	157.205322265625	1677.063354492188	1161.915771484375	227.6159362792969	978.3261108398438	1273.04345703125	201.9559631347656	993.9940795898438	902.837890625	117.5018463134766	1017.730529785156	953.2490844726562	103.5345153808594	1007.351379394531	1213.255126953125	280.714111328125	489.8868103027344	1218.0146484375	253.3564147949219	630.3339233398438	1248.032836914062	445.629150390625	42.26065826416016	1198.533081054688	362.4910583496094	274.9669799804688	1220.798583984375	225.1505737304688	46.05068969726562	1179.402465820312	273.2638549804688	49.52377319335938	1131.698852539062	340.4495544433594	35.70885848999023	1245.161010742188	493.6299438476562	43.7948112487793	1125.686157226562	-10.57880687713623	545.0278930664062	893.6383666992188	87.32265472412109	799.2865600585938	881.652587890625	-79.20444488525391	50.00237655639648	895.7911987304688	-59.5301628112793	430.3949890136719	896.4505004882812	-277.8873901367188	139.2002105712891	871.6890258789062	-245.9858703613281	115.060905456543	927.2731323242188	-171.3172454833984	83.85392761230469	835.7073364257812	-51.83890151977539	36.62252044677734	975.3994140625	
97	0.96	339.9571228027344	1034.024536132812	1037.007446289062	328.0013732910156	1038.747192382812	1159.237182617188	330.9923400878906	1075.74560546875	1096.391723632812	55.6175422668457	1265.009399414062	1079.108032226562	352.7701110839844	1241.483276367188	1108.224487304688	258.7941284179688	1501.661743164062	1111.479370117188	69.24638366699219	1382.053344726562	1089.87109375	353.9333190917969	1335.60205078125	1011.869262695312	259.5062255859375	1479.57861328125	1211.905029296875	177.72216796875	1461.140869140625	1282.887939453125	216.0806121826172	1334.64501953125	1363.304809570312	217.3617248535156	1117.381225585938	1388.076049804688	276.4349060058594	1105.189086914062	1324.102416992188	140.520263671875	871.7433471679688	1354.435791015625	213.2988433837891	864.1974487304688	1407.13623046875	213.0110168457031	1007.274047851562	1405.392211914062	157.5446929931641	689.1837158203125	1333.846435546875	204.1986389160156	792.8438720703125	1402.864501953125	135.6246032714844	792.8051147460938	1375.615234375	216.2330322265625	1475.341552734375	925.8815307617188	251.7497253417969	1412.576416015625	861.1170043945312	314.2513427734375	1131.459716796875	810.1654052734375	303.4458618164062	1121.851928710938	907.1866455078125	200.8980560302734	889.7537231445312	801.0888671875	284.776123046875	881.881103515625	770.537841796875	301.3937072753906	1057.327392578125	787.2809448242188	206.2480926513672	699.9174194335938	826.7696533203125	189.3846435546875	791.4468994140625	789.2267456054688	267.6097717285156	795.9467163085938	769.4473876953125	178.5723114013672	1655.495971679688	1026.937133789062	-20.41483306884766	1667.1318359375	1113.921142578125	8.011374473571777	1656.534912109375	987.0128784179688	151.932373046875	1675.172607421875	1159.746704101562	221.7789611816406	977.0519409179688	1271.939575195312	195.9308471679688	991.71728515625	901.7352905273438	111.4385833740234	1015.640380859375	951.97802734375	97.67115783691406	1005.808837890625	1212.021606445312	278.2440795898438	489.506591796875	1217.418579101562	249.6596221923828	629.5369873046875	1247.217895507812	445.553466796875	42.43445205688477	1198.347412109375	361.2862548828125	274.9269409179688	1220.427978515625	225.1557922363281	46.07086563110352	1179.3671875	273.0839233398438	49.2138671875	1131.6572265625	340.4854431152344	35.69599151611328	1245.18701171875	493.5287170410156	44.08232116699219	1125.512817382812	-14.9413595199585	542.9570922851562	891.9940795898438	82.01123809814453	797.1401977539062	880.6102294921875	-96.38298034667969	50.65743255615234	891.8309326171875	-66.19209289550781	429.9491577148438	894.4684448242188	-293.1855773925781	143.5952453613281	866.861083984375	-262.2206726074219	118.7693252563477	922.5903930664062	-187.7339782714844	85.70102691650391	831.6893310546875	-70.20182037353516	36.13072967529297	972.0336303710938	
98	0.97	333.8398132324219	1031.944702148438	1035.571411132812	321.996337890625	1036.9150390625	1157.81298828125	324.9759216308594	1073.765869140625	1094.874755859375	49.68375396728516	1263.216186523438	1077.270385742188	346.9296875	1239.4462890625	1106.575927734375	253.1617736816406	1499.716186523438	1109.501220703125	63.42420196533203	1380.257934570312	1087.878540039062	348.2702941894531	1333.419677734375	1010.172302246094	253.7967529296875	1477.742797851562	1209.956176757812	172.0641479492188	1459.642578125	1281.043334960938	210.0610809326172	1333.056396484375	1361.528686523438	210.9158782958984	1115.889770507812	1386.891845703125	270.0144348144531	1103.404907226562	1323.000610351562	133.4699401855469	870.3697509765625	1353.75341796875	206.2604827880859	862.728515625	1406.46923828125	206.3011627197266	1005.809997558594	1404.45556640625	149.8140411376953	687.7962036132812	1333.460327148438	196.9254760742188	791.405517578125	1402.371215820312	128.3684387207031	791.505859375	1375.128173828125	210.6919097900391	1473.13623046875	923.8909912109375	246.3192596435547	1410.310913085938	859.2801513671875	309.2204895019531	1129.232421875	808.8125	298.2361145019531	1119.723999023438	905.8233032226562	196.4200134277344	887.29541015625	799.8142700195312	280.3445739746094	879.56884765625	769.382568359375	296.5235595703125	1055.057250976562	785.9920043945312	202.1723480224609	697.4823608398438	825.7882690429688	185.126220703125	788.9258422851562	788.09423828125	263.3751220703125	793.6143188476562	768.3836669921875	173.9068908691406	1653.258666992188	1024.842163085938	-25.55353355407715	1665.990600585938	1110.62744140625	3.590234994888306	1655.083129882812	983.904296875	146.5833587646484	1673.249145507812	1157.468505859375	215.7761077880859	975.7536010742188	1270.73193359375	189.6925964355469	989.3660888671875	900.5084838867188	105.1477966308594	1013.457458496094	950.5715942382812	91.61392974853516	1004.217041015625	1210.669555664062	275.6003723144531	489.1408386230469	1216.77685546875	245.7542724609375	628.7041015625	1246.356201171875	445.4710083007812	42.61498641967773	1198.174438476562	359.9723815917969	274.8922424316406	1220.03466796875	225.1424255371094	46.06240081787109	1179.340087890625	272.9087829589844	48.92333984375	1131.638916015625	340.5006103515625	35.65685653686523	1245.217407226562	493.4287414550781	44.43524932861328	1125.356323242188	-19.50673294067383	540.840087890625	890.3711547851562	76.56326293945312	794.8446655273438	879.4747314453125	-112.747688293457	51.39499664306641	887.9111938476562	-72.87366485595703	429.4508056640625	892.5361938476562	-307.726806640625	147.6652679443359	862.0763549804688	-277.6622314453125	122.2446899414062	917.8991088867188	-203.3442687988281	87.50572204589844	827.6646728515625	-87.64196014404297	35.82028198242188	968.5988159179688	
